<svg width="23" height="18" viewBox="0 0 23 18" fill="none" xmlns="http://www.w3.org/2000/svg">
<mask id="mask0_31_507" style="mask-type:luminance" maskUnits="userSpaceOnUse" x="0" y="0" width="23" height="18">
<path d="M23 0.18335H0V17.8167H23V0.18335Z" fill="white"/>
</mask>
<g mask="url(#mask0_31_507)">
<path d="M5.44244 17.7828C8.43829 17.7828 10.8669 15.2365 10.8669 12.0956C10.8669 8.95465 8.43829 6.40845 5.44244 6.40845C2.44658 6.40845 0.0179443 8.95465 0.0179443 12.0956C0.0179443 15.2365 2.44658 17.7828 5.44244 17.7828Z" fill="#04E061"/>
<path d="M14.8527 17.065C16.663 17.065 18.1305 15.5263 18.1305 13.6284C18.1305 11.7304 16.663 10.1919 14.8527 10.1919C13.0424 10.1919 11.5748 11.7304 11.5748 13.6284C11.5748 15.5263 13.0424 17.065 14.8527 17.065Z" fill="#FF4053"/>
<path d="M6.4799 5.66702C7.60018 5.66702 8.50831 4.7149 8.50831 3.54042C8.50831 2.36593 7.60018 1.41382 6.4799 1.41382C5.35967 1.41382 4.45154 2.36593 4.45154 3.54042C4.45154 4.7149 5.35967 5.66702 6.4799 5.66702Z" fill="#965EEB"/>
<path d="M13.5793 9.44991C16.015 9.44991 17.9896 7.37971 17.9896 4.82604C17.9896 2.27233 16.015 0.202148 13.5793 0.202148C11.1435 0.202148 9.16895 2.27233 9.16895 4.82604C9.16895 7.37971 11.1435 9.44991 13.5793 9.44991Z" fill="#00AAFF"/>
</g>
</svg>
