<svg width="23" height="18" viewBox="0 0 23 18" fill="none" xmlns="http://www.w3.org/2000/svg">
<mask id="mask0_31_507" style="mask-type:luminance" maskUnits="userSpaceOnUse" x="0" y="0" width="23" height="18">
<path d="M23 0.18335H0V17.8167H23V0.18335Z" fill="white"/>
</mask>
<g mask="url(#mask0_31_507)">
<path d="M5.44244 17.7828C8.43829 17.7828 10.8669 15.2365 10.8669 12.0956C10.8669 8.95465 8.43829 6.40845 5.44244 6.40845C2.44658 6.40845 0.0179443 8.95465 0.0179443 12.0956C0.0179443 15.2365 2.44658 17.7828 5.44244 17.7828Z" fill="white"/>
<path d="M10.3669 12.0956C10.3669 14.9829 8.14013 17.2828 5.44244 17.2828C2.74474 17.2828 0.517944 14.9829 0.517944 12.0956C0.517944 9.20825 2.74474 6.90845 5.44244 6.90845C8.14014 6.90845 10.3669 9.20826 10.3669 12.0956Z" stroke="black" stroke-opacity="0.2"/>
<path d="M14.8527 17.065C16.663 17.065 18.1305 15.5263 18.1305 13.6284C18.1305 11.7304 16.663 10.1919 14.8527 10.1919C13.0424 10.1919 11.5748 11.7304 11.5748 13.6284C11.5748 15.5263 13.0424 17.065 14.8527 17.065Z" fill="white"/>
<path d="M17.6305 13.6284C17.6305 15.2728 16.3648 16.565 14.8527 16.565C13.3405 16.565 12.0748 15.2727 12.0748 13.6284C12.0748 11.9841 13.3405 10.6919 14.8527 10.6919C16.3648 10.6919 17.6305 11.984 17.6305 13.6284Z" stroke="black" stroke-opacity="0.2"/>
<path d="M6.4799 5.66702C7.60018 5.66702 8.50831 4.7149 8.50831 3.54042C8.50831 2.36593 7.60018 1.41382 6.4799 1.41382C5.35967 1.41382 4.45154 2.36593 4.45154 3.54042C4.45154 4.7149 5.35967 5.66702 6.4799 5.66702Z" fill="white"/>
<path d="M8.00831 3.54042C8.00831 4.4613 7.30202 5.16702 6.4799 5.16702C5.65784 5.16702 4.95154 4.46131 4.95154 3.54042C4.95154 2.61953 5.65784 1.91382 6.4799 1.91382C7.30202 1.91382 8.00831 2.61953 8.00831 3.54042Z" stroke="black" stroke-opacity="0.2"/>
<path d="M13.5793 9.44991C16.015 9.44991 17.9896 7.37971 17.9896 4.82604C17.9896 2.27233 16.015 0.202148 13.5793 0.202148C11.1435 0.202148 9.16895 2.27233 9.16895 4.82604C9.16895 7.37971 11.1435 9.44991 13.5793 9.44991Z" fill="white"/>
<path d="M17.4896 4.82604C17.4896 7.12612 15.7168 8.94991 13.5793 8.94991C11.4417 8.94991 9.66895 7.12612 9.66895 4.82604C9.66895 2.52592 11.4417 0.702148 13.5793 0.702148C15.7168 0.702148 17.4896 2.52593 17.4896 4.82604Z" stroke="black" stroke-opacity="0.2"/>
</g>
</svg>
