<svg width="36" height="17" viewBox="0 0 36 17" fill="none" xmlns="http://www.w3.org/2000/svg">
<g clip-path="url(#clip0_31_508)">
<path d="M28.4062 13.4445C32.3214 13.4445 34.6209 11.3513 34.6209 11.3513L34.6192 14.4328C34.6192 14.4328 32.3891 17 28.4077 17H28.4062C24.4249 17 22.1948 14.4328 22.1948 14.4328L22.193 11.3513C22.193 11.3513 24.4911 13.4438 28.4062 13.4438V13.4445Z" fill="white"/>
<path d="M22.6947 14.2327L22.6936 12.3336C22.9453 12.493 23.252 12.6698 23.6108 12.8463C24.6365 13.3506 26.0916 13.8531 27.9062 13.9329V13.9445H28.4062C30.4548 13.9445 32.0838 13.3966 33.2024 12.8466C33.5615 12.67 33.8684 12.493 34.1203 12.3335L34.1193 14.2327C34.0596 14.2921 33.9786 14.3695 33.8767 14.4599C33.624 14.6841 33.2447 14.9863 32.7466 15.2892C31.751 15.8948 30.2871 16.5 28.4077 16.5H28.4062C26.5269 16.5 25.063 15.8948 24.0674 15.2892C23.5693 14.9863 23.19 14.6841 22.9373 14.4599C22.8354 14.3695 22.7544 14.2921 22.6947 14.2327ZM22.5716 14.1042C22.5715 14.104 22.5715 14.104 22.5716 14.1041L22.5716 14.1042Z" stroke="black" stroke-opacity="0.2"/>
<path d="M9.77797 0.607742C9.3426 0.600614 8.91053 0.712854 8.50679 0.937956C8.10306 1.16306 7.73569 1.49655 7.42598 1.91911C7.11628 2.34167 6.8704 2.84489 6.70258 3.39962C6.53476 3.95435 6.44834 4.54954 6.44833 5.15072C6.44833 6.0562 6.64429 6.94103 7.01106 7.69165C7.37784 8.44227 7.89868 9.02445 8.50677 9.36346C9.10869 9.69908 9.76906 9.78138 10.4048 9.60002C11.0405 9.41866 11.6232 8.98172 12.0795 8.34421C12.5334 7.70995 12.8422 6.90527 12.9672 6.03043C13.0923 5.15559 13.0281 4.24928 12.7827 3.42444C12.5374 2.5996 12.1216 1.8927 11.5873 1.39183C11.053 0.890959 10.4237 0.618271 9.77797 0.607742ZM9.77797 6.84308C9.11864 6.84308 8.58582 6.06072 8.58582 5.15041C8.58582 4.24006 9.12049 3.45832 9.77797 3.45832C10.4373 3.45832 10.9706 4.24006 10.9706 5.15041C10.9706 6.06072 10.4378 6.84308 9.77797 6.84308ZM6.97713 0.823312H4.69613L3.71386 3.76092L2.58518 0.823312H0.326904L2.62364 6.54242L1.55425 9.48003H3.84129L6.97713 0.823312ZM32.0953 0.607742C31.6599 0.600606 31.2279 0.712854 30.8242 0.937981C30.4204 1.16299 30.0531 1.49645 29.7434 1.91901C29.4337 2.34158 29.1878 2.84485 29.02 3.39963C28.8521 3.95431 28.7656 4.54952 28.7656 5.15072C28.7656 5.75192 28.8521 6.34713 29.02 6.90182C29.1878 7.45655 29.4336 7.95977 29.7433 8.3823C30.053 8.80493 30.4204 9.13844 30.8242 9.36346C31.4261 9.69911 32.0864 9.78143 32.7222 9.60006C33.3579 9.41869 33.9405 8.98175 34.3968 8.34421C35.0055 7.49385 35.3469 6.34639 35.3469 5.15072C35.3469 3.95505 35.0055 2.80759 34.3968 1.95724C33.7881 1.10676 32.9612 0.621871 32.0953 0.607742ZM32.0953 6.84308C31.436 6.84308 30.9032 6.06072 30.9032 5.15041C30.9032 4.24006 31.438 3.45832 32.0953 3.45832C32.7533 3.45832 33.2879 4.24006 33.2879 5.15041C33.2894 6.06072 32.7551 6.84308 32.0953 6.84308ZM17.5736 0.838668V5.68839C17.5663 5.98849 17.4749 6.27295 17.3186 6.48171C17.1623 6.69046 16.9533 6.80717 16.7358 6.8072C16.5184 6.8072 16.3094 6.6905 16.1531 6.48173C15.9968 6.27297 15.9054 5.98849 15.8981 5.68839V0.838668H13.7992V5.98715C13.7992 8.24727 15.0322 9.6937 16.6538 9.6937H16.8146C18.4363 9.6937 19.6697 8.24793 19.6697 5.98715V0.838668H17.5736ZM24.8354 0.838668H22.1791V9.48003H24.8669C26.8258 9.48003 28.1903 7.54614 28.1903 5.15935V5.04803C28.1918 2.66188 26.768 0.838668 24.8354 0.838668ZM26.137 5.15935C26.137 6.03705 25.6901 6.72731 24.9378 6.75802C24.5439 6.77528 24.1886 6.75802 24.1886 6.75802V3.56071C24.1886 3.56071 24.5055 3.54342 24.9378 3.56071C25.7059 3.59142 26.1365 4.28164 26.1365 5.16L26.137 5.15935Z" fill="white"/>
<path d="M9.77145 1.00769L9.77143 1.00769C9.41081 1.00178 9.04775 1.09431 8.70158 1.28732C8.35438 1.48091 8.02885 1.77321 7.7486 2.15557C7.46835 2.53795 7.24154 2.99947 7.08545 3.51545C6.92941 4.03123 6.84834 4.58731 6.84833 5.15072L9.77145 1.00769ZM9.77145 1.00769C10.3045 1.01638 10.8415 1.24098 11.3137 1.68366C11.7879 2.12815 12.1706 2.7696 12.3993 3.53849C12.6278 4.30651 12.6884 5.15453 12.5713 5.97382C12.4541 6.79364 12.1661 7.53594 11.7542 8.1114C11.3404 8.68961 10.8284 9.06321 10.295 9.21537C9.76624 9.36623 9.21509 9.30043 8.70156 9.0141L8.70155 9.01409M9.77145 1.00769L8.70155 9.01409M8.70155 9.01409C8.17806 8.72224 7.70869 8.20826 7.37046 7.51604C7.0326 6.82459 6.84833 6.00054 6.84833 5.15073L8.70155 9.01409ZM24.9547 7.15767C25.4632 7.13673 25.8727 6.88753 26.1443 6.50985C26.4097 6.14079 26.537 5.66157 26.537 5.15935V3.97594L26.3637 4.20296C26.3074 4.06269 26.2367 3.93087 26.1511 3.81056C25.88 3.42968 25.4689 3.18162 24.9538 3.16103C24.7287 3.15202 24.5337 3.15202 24.3946 3.15428C24.3249 3.15541 24.269 3.15711 24.23 3.15855L24.1846 3.16042L24.1721 3.16103L24.1685 3.16121L24.1674 3.16127L24.167 3.16129L24.1669 3.16129L24.1668 3.1613L24.1886 3.56071L24.1668 3.1613L23.7886 3.18193V3.56071V6.75802V7.13907L24.1692 7.15755L24.1886 6.75802L24.1692 7.15755L24.1693 7.15756L24.1694 7.15756L24.1698 7.15758L24.1709 7.15763L24.1746 7.1578L24.1879 7.15838L24.2366 7.16022C24.2782 7.16164 24.3374 7.16332 24.4092 7.16444C24.5522 7.16668 24.7476 7.16672 24.9547 7.15767ZM24.9547 7.15767C24.9549 7.15766 24.9551 7.15765 24.9553 7.15764L24.9378 6.75802L24.9541 7.15769C24.9543 7.15768 24.9545 7.15767 24.9547 7.15767ZM2.99483 6.39335L0.91859 1.22331H2.31036L3.34047 3.90438L3.73997 4.94417L4.09321 3.88777L4.98415 1.22331H6.40679L3.56075 9.08003H2.12554L2.99951 6.67925L3.05188 6.5354L2.99483 6.39335ZM17.9736 5.68839V1.23867H19.2697V5.98715C19.2697 8.11823 18.134 9.2937 16.8146 9.2937H16.6538C15.3345 9.2937 14.1992 8.11771 14.1992 5.98715V1.23867H15.4981V5.68839H15.498L15.4983 5.69802C15.5072 6.06825 15.6195 6.43645 15.8329 6.72148C16.0478 7.00851 16.3666 7.2072 16.7359 7.2072H16.7359C17.1051 7.20716 17.4238 7.00847 17.6388 6.72145C17.8522 6.43645 17.9645 6.06827 17.9734 5.69805L17.9736 5.69806V5.68839ZM32.0887 1.00769L32.0888 1.00769C32.801 1.01931 33.5194 1.41855 34.0715 2.19003L34.0715 2.19007C34.6249 2.96308 34.9469 4.02614 34.9469 5.15072C34.9469 6.2753 34.6249 7.33836 34.0715 8.11137L34.0715 8.11141C33.6577 8.68964 33.1457 9.06325 32.6124 9.21541C32.0836 9.36627 31.5325 9.30046 31.019 9.01411L31.0189 9.01405C30.6717 8.82056 30.3462 8.52828 30.066 8.14587L30.0659 8.14584C29.7857 7.76351 29.5589 7.302 29.4029 6.78604L29.4029 6.78591C29.2467 6.2702 29.1656 5.71413 29.1656 5.15072C29.1656 4.58731 29.2467 4.03124 29.4029 3.51554L29.4029 3.5154C29.559 2.99939 29.7857 2.53784 30.066 2.15547C30.3462 1.77311 30.6717 1.48087 31.0189 1.28739L31.019 1.28733C31.3651 1.09431 31.7282 1.00178 32.0887 1.00769ZM22.5791 9.08003V1.23867H24.8354C26.4653 1.23867 27.7917 2.79097 27.7903 5.04777V5.04803V5.15935C27.7903 7.43973 26.5056 9.08003 24.8669 9.08003H22.5791ZM8.18582 5.15041C8.18582 5.6796 8.33985 6.18425 8.60648 6.56683C8.87145 6.947 9.27853 7.24308 9.77797 7.24308C10.2775 7.24308 10.6848 6.9471 10.9498 6.56687C11.2166 6.18428 11.3706 5.6796 11.3706 5.15041C11.3706 4.62112 11.2164 4.11655 10.9496 3.73411C10.6844 3.35406 10.2772 3.05832 9.77797 3.05832C9.27939 3.05832 8.8724 3.35431 8.60734 3.73403C8.34048 4.11634 8.18582 4.62089 8.18582 5.15041ZM30.5032 5.15041C30.5032 5.6796 30.6572 6.18425 30.9238 6.56682L33.6879 5.14975C33.6878 4.62049 33.5331 4.11618 33.2663 3.734C33.0011 3.35421 32.594 3.05832 32.0953 3.05832C31.5968 3.05832 31.1898 3.35434 30.9248 3.73402C30.6579 4.11632 30.5032 4.62087 30.5032 5.15041Z" stroke="black" stroke-opacity="0.2" stroke-width="0.8"/>
</g>
<defs>
<clipPath id="clip0_31_508">
<rect width="36" height="17" fill="white"/>
</clipPath>
</defs>
</svg>
