<svg width="36" height="17" viewBox="0 0 36 17" fill="none" xmlns="http://www.w3.org/2000/svg">
<g clip-path="url(#clip0_31_508)">
<path d="M28.4062 13.4445C32.3214 13.4445 34.6209 11.3513 34.6209 11.3513L34.6192 14.4328C34.6192 14.4328 32.3891 17 28.4077 17H28.4062C24.4249 17 22.1948 14.4328 22.1948 14.4328L22.193 11.3513C22.193 11.3513 24.4911 13.4438 28.4062 13.4438V13.4445Z" fill="#E11023"/>
<path d="M9.77797 0.607742C9.3426 0.600614 8.91053 0.712854 8.50679 0.937956C8.10306 1.16306 7.73569 1.49655 7.42598 1.91911C7.11628 2.34167 6.8704 2.84489 6.70258 3.39962C6.53476 3.95435 6.44834 4.54954 6.44833 5.15072C6.44833 6.0562 6.64429 6.94103 7.01106 7.69165C7.37784 8.44227 7.89868 9.02445 8.50677 9.36346C9.10869 9.69908 9.76906 9.78138 10.4048 9.60002C11.0405 9.41866 11.6232 8.98172 12.0795 8.34421C12.5334 7.70995 12.8422 6.90527 12.9672 6.03043C13.0923 5.15559 13.0281 4.24928 12.7827 3.42444C12.5374 2.5996 12.1216 1.8927 11.5873 1.39183C11.053 0.890959 10.4237 0.618271 9.77797 0.607742ZM9.77797 6.84308C9.11864 6.84308 8.58582 6.06072 8.58582 5.15041C8.58582 4.24006 9.12049 3.45832 9.77797 3.45832C10.4373 3.45832 10.9706 4.24006 10.9706 5.15041C10.9706 6.06072 10.4378 6.84308 9.77797 6.84308ZM6.97713 0.823312H4.69613L3.71386 3.76092L2.58518 0.823312H0.326904L2.62364 6.54242L1.55425 9.48003H3.84129L6.97713 0.823312ZM32.0953 0.607742C31.6599 0.600606 31.2279 0.712854 30.8242 0.937981C30.4204 1.16299 30.0531 1.49645 29.7434 1.91901C29.4337 2.34158 29.1878 2.84485 29.02 3.39963C28.8521 3.95431 28.7656 4.54952 28.7656 5.15072C28.7656 5.75192 28.8521 6.34713 29.02 6.90182C29.1878 7.45655 29.4336 7.95977 29.7433 8.3823C30.053 8.80493 30.4204 9.13844 30.8242 9.36346C31.4261 9.69911 32.0864 9.78143 32.7222 9.60006C33.3579 9.41869 33.9405 8.98175 34.3968 8.34421C35.0055 7.49385 35.3469 6.34639 35.3469 5.15072C35.3469 3.95505 35.0055 2.80759 34.3968 1.95724C33.7881 1.10676 32.9612 0.621871 32.0953 0.607742ZM32.0953 6.84308C31.436 6.84308 30.9032 6.06072 30.9032 5.15041C30.9032 4.24006 31.438 3.45832 32.0953 3.45832C32.7533 3.45832 33.2879 4.24006 33.2879 5.15041C33.2894 6.06072 32.7551 6.84308 32.0953 6.84308ZM17.5736 0.838668V5.68839C17.5663 5.98849 17.4749 6.27295 17.3186 6.48171C17.1623 6.69046 16.9533 6.80717 16.7358 6.8072C16.5184 6.8072 16.3094 6.6905 16.1531 6.48173C15.9968 6.27297 15.9054 5.98849 15.8981 5.68839V0.838668H13.7992V5.98715C13.7992 8.24727 15.0322 9.6937 16.6538 9.6937H16.8146C18.4363 9.6937 19.6697 8.24793 19.6697 5.98715V0.838668H17.5736ZM24.8354 0.838668H22.1791V9.48003H24.8669C26.8258 9.48003 28.1903 7.54614 28.1903 5.15935V5.04803C28.1918 2.66188 26.768 0.838668 24.8354 0.838668ZM26.137 5.15935C26.137 6.03705 25.6901 6.72731 24.9378 6.75802C24.5439 6.77528 24.1886 6.75802 24.1886 6.75802V3.56071C24.1886 3.56071 24.5055 3.54342 24.9378 3.56071C25.7059 3.59142 26.1365 4.28164 26.1365 5.16L26.137 5.15935Z" fill="#000200"/>
</g>
<defs>
<clipPath id="clip0_31_508">
<rect width="36" height="17" fill="white"/>
</clipPath>
</defs>
</svg>
